# xmcd
#
# Track frame offsets:
#	152
#	13615
#	25064
#	36967
#	50606
#	61193
#	73997
#	87441
#	100438
#	113284
#	122942
#	134369
#	143810
#	154162
#	164761
#	175706
#	188536
#	199298
#	210942
#	219731
#	229693
#	239809
#	252527
#	266678
#
# Disc length: 3700 seconds
#
# Revision: 0
# Processed by: cddbd v1.4PL0 Copyright (c) Steve Scherf et al.
# Submitted via: EasyCDDAExtractor 4.5.2.1
#
DISCID=660e7218
DTITLE=Various Artist - Rare and Unreleased Group Harmony Gems  Vol 11
DYEAR=1900
DGENRE=Blues
TTITLE0=Alan Bruce and Group - Where Do We Go From Here
TTITLE1=Pallya De Santos and Group - Wishing Well
TTITLE2=Ron Hoffman and Group - Sleep Baby Sleep
TTITLE3=Del-Lords - All Alone(ACAP)(unr)
TTITLE4=Gary Whitby and Group - Fools Fall In Love
TTITLE5=Bobby Paris and The Parisians - How Did Your Vacation Go
TTITLE6=Johnny Greco and The Vandells - Gloria
TTITLE7=Superbs - My Love For You
TTITLE8=Rip-Chords - I Love You The Most
TTITLE9=Velvetones - Pretty Girl (unr)
TTITLE10=Ivies - Sunshine
TTITLE11=Joe Stampley and Group - Creation Of Love
TTITLE12=Ruth and The Dells - Any One But You
TTITLE13=Royal Drifters - To Each His Own
TTITLE14=Emersons - Joanie Joanie
TTITLE15=Montereys - I Wish You Love
TTITLE16=Maria and The Twilights - Temptation
TTITLE17=Lavenders - To The Villa (unr)
TTITLE18=Pageants - It's Been So Long
TTITLE19=Lee Linden and The Holidays - Trouble In Paradise
TTITLE20=Four Sounds - Someone To Show The Way
TTITLE21=Charms - My Prayer Tonight
TTITLE22=Nightmares - Bananas (unr)
TTITLE23=Superiors - Dance Of Love
EXTD=
EXTT0=
EXTT1=
EXTT2=
EXTT3=
EXTT4=
EXTT5=
EXTT6=
EXTT7=
EXTT8=
EXTT9=
EXTT10=
EXTT11=
EXTT12=
EXTT13=
EXTT14=
EXTT15=
EXTT16=
EXTT17=
EXTT18=
EXTT19=
EXTT20=
EXTT21=
EXTT22=
EXTT23=
PLAYORDER=
